<svg version="1" xmlns="http://www.w3.org/2000/svg" width="1600" height="1600" viewBox="0 0 1200.000000 1200.000000"><path d="M217.4 59c-6.6 1.5-12.6 6.9-15.3 14.1-.6 1.7-.9 187.9-.8 528l.2 525.4 2.6 4.5c1.6 2.8 4.4 5.6 7.4 7.5l4.8 3 153.6.2c168.5.2 160.1.5 167-5.8 1.8-1.7 4-5.2 5-7.7 1.5-4.4 1.6-44.3 1.6-529.2V74.5l-2.3-4.4c-2.4-4.6-4.8-7.1-9.7-9.9-2.8-1.6-12.9-1.7-157-1.8-84.7 0-155.4.2-157.1.6zM671.7 515.5c-5.8 2-9.7 5.6-12.4 11.5-1.6 3.2-1.7 27.3-1.8 299.5 0 173.3.3 297.5.8 299.7.5 2 2.5 5.5 4.4 7.8 6.9 8-7.5 7.3 164.3 7.5 164.3.1 159.3.3 165-4.8 1.4-1.2 3.6-4 5-6.2l2.5-4V971c-.1-138.7-.4-164.7-2-174-.2-1.4-.7-4.5-1-7-1.1-9.4-3-18.7-6.6-33.5-11.5-46.3-35.4-92.7-67.4-130.1-9.4-11.1-30.2-31.3-42.1-40.8-41-33-85.2-53.6-140.4-65.5-21-4.5-60.8-7.2-68.3-4.6z"/></svg>